<?xml version="1.0" standalone="no"?>
<!DOCTYPE svg PUBLIC "-//W3C//DTD SVG 20010904//EN"
 "http://www.w3.org/TR/2001/REC-SVG-20010904/DTD/svg10.dtd">
<svg version="1.0" xmlns="http://www.w3.org/2000/svg"
 width="192.000000pt" height="192.000000pt" viewBox="0 0 192.000000 192.000000"
 preserveAspectRatio="xMidYMid meet">

<g transform="translate(0.000000,192.000000) scale(0.100000,-0.100000)"
fill="#000000" stroke="none">
<path d="M661 1741 c-32 -25 -40 -77 -41 -273 0 -197 -2 -206 -37 -178 -31 24
-56 25 -77 4 -14 -13 -15 -30 -10 -95 6 -74 5 -82 -17 -112 -21 -28 -24 -48
-32 -172 -15 -226 -18 -211 52 -322 34 -54 80 -125 104 -157 l42 -59 0 -114
-1 -114 24 50 c14 28 29 51 34 51 5 0 6 5 2 11 -4 7 2 6 17 -2 22 -11 23 -11
10 4 -9 12 -10 17 -2 17 7 0 9 5 5 11 -3 6 9 3 27 -6 l34 -16 -25 21 -25 21
25 -6 c24 -5 24 -5 -5 17 -66 50 -157 151 -209 230 -86 135 -99 164 -92 217 3
25 8 96 11 156 5 89 11 120 31 161 24 49 25 56 14 114 -13 74 -9 90 24 90 56
0 88 -94 66 -197 -7 -32 -11 -80 -9 -108 6 -106 -1 -204 -13 -211 -5 -4 0 -15
11 -25 17 -16 21 -32 21 -90 0 -74 17 -121 47 -134 29 -11 165 -42 203 -45
101 -8 326 8 363 27 33 17 45 12 23 -10 -8 -8 -13 -17 -10 -19 8 -8 -107 -109
-117 -102 -5 3 -9 1 -9 -4 0 -23 -102 -41 -125 -22 -12 10 -15 9 -15 -4 0 -9
-4 -16 -9 -16 -5 0 -14 -14 -20 -31 -12 -35 -15 -76 -5 -66 8 8 64 -24 64 -35
0 -4 6 -8 13 -8 8 0 28 -7 45 -16 27 -13 32 -21 33 -52 1 -31 6 -21 31 58 28
89 34 99 95 159 105 103 187 247 243 427 27 89 26 126 -6 163 -21 25 -23 34
-14 52 7 12 9 40 6 68 -3 25 -6 67 -6 94 1 84 -46 135 -115 124 l-36 -6 29 37
c64 81 79 145 42 182 -11 11 -33 20 -50 20 l-30 0 0 101 c0 98 -1 101 -29 130
l-29 29 -274 0 c-248 0 -275 -2 -297 -19z m572 -6 c42 -18 48 -54 46 -268 -1
-111 -5 -215 -9 -232 -4 -16 -8 79 -9 212 l-1 242 -26 20 c-25 20 -39 21 -279
21 -234 0 -255 -1 -276 -19 l-24 -19 -3 -543 -3 -542 22 -24 22 -23 268 0
c293 0 284 -2 299 63 l8 32 1 -33 c1 -23 -7 -41 -24 -57 l-24 -25 -256 0
c-260 0 -284 3 -312 39 -9 12 -12 149 -13 562 0 533 0 547 20 572 11 14 30 28
43 30 39 7 511 1 530 -8z m-323 -35 c0 -5 -4 -10 -10 -10 -5 0 -10 5 -10 10 0
6 5 10 10 10 6 0 10 -4 10 -10z m70 0 c0 -5 -9 -10 -20 -10 -11 0 -20 5 -20
10 0 6 9 10 20 10 11 0 20 -4 20 -10z m50 0 c0 -5 -7 -10 -15 -10 -8 0 -15 5
-15 10 0 6 7 10 15 10 8 0 15 -4 15 -10z m-190 -10 c0 -6 39 -10 97 -10 53 0
94 -2 92 -5 -11 -10 -193 -7 -197 4 -5 16 -119 14 -129 -1 -4 -7 -10 -209 -13
-448 l-6 -435 -2 433 c-1 284 2 440 8 453 9 16 22 19 80 19 40 0 70 -4 70 -10z
m-95 -40 c-5 -8 -11 -8 -17 -2 -6 6 -7 16 -3 22 5 8 11 8 17 2 6 -6 7 -16 3
-22z m441 -177 c24 -21 44 -44 44 -53 0 -8 -29 -46 -65 -85 -61 -67 -64 -72
-65 -122 0 -44 -5 -58 -30 -87 -53 -60 -136 -71 -194 -25 -108 85 -47 259 90
259 39 0 44 4 103 75 34 41 64 75 67 75 3 0 25 -17 50 -37z m164 -13 c11 -11
20 -25 20 -30 0 -18 -39 -88 -52 -96 -10 -5 -10 -4 -1 6 10 11 9 16 -3 24 -16
12 -30 77 -21 101 9 21 33 19 57 -5z m-326 -9 c8 -12 -18 -21 -42 -14 -39 10
-131 -26 -171 -66 -41 -41 -71 -113 -71 -171 0 -79 68 -168 153 -199 86 -33
201 10 252 93 27 45 30 57 30 134 -1 83 0 84 13 51 32 -77 -14 -214 -88 -263
-127 -84 -286 -42 -355 95 -28 54 -32 117 -13 183 15 51 99 137 148 153 43 14
137 16 144 4z m-49 -46 c-5 -2 -27 -6 -48 -10 -39 -6 -108 -59 -129 -99 -6
-11 -14 -45 -17 -76 -5 -41 -8 -48 -12 -29 -9 44 15 117 52 156 41 43 82 62
129 62 19 0 31 -2 25 -4z m172 -177 c-3 -8 -6 -5 -6 6 -1 11 2 17 5 13 3 -3 4
-12 1 -19z m257 -9 c14 -17 26 -43 26 -57 0 -21 -2 -24 -10 -12 -8 13 -10 12
-10 -2 0 -10 -7 -18 -15 -18 -8 0 -15 -6 -15 -14 0 -7 -12 -22 -27 -31 -22
-15 -32 -16 -55 -7 -15 6 -26 6 -22 1 3 -5 -5 -7 -18 -5 -20 3 -23 9 -22 41 1
30 11 46 50 86 57 58 82 61 118 18z m-257 -51 c-3 -7 -5 -2 -5 12 0 14 2 19 5
13 2 -7 2 -19 0 -25z m-328 -73 c9 -12 4 -8 -11 7 -16 16 -28 34 -28 41 0 6 6
3 12 -8 6 -11 18 -29 27 -40z m311 21 c0 -2 -8 -10 -17 -17 -16 -13 -17 -12
-4 4 13 16 21 21 21 13z m-60 -61 c-7 -8 -17 -15 -23 -15 -6 0 -2 7 9 15 25
19 30 19 14 0z m216 -12 c-6 -6 -36 9 -36 18 0 5 9 4 20 -3 10 -7 18 -14 16
-15z m59 7 c-3 -5 -12 -10 -18 -10 -7 0 -6 4 3 10 19 12 23 12 15 0z m80 -10
c10 -17 -25 -73 -73 -117 -51 -47 -54 -48 -83 -33 -19 11 -24 4 -20 -25 1 -5
-8 1 -19 14 -25 29 -25 47 0 88 19 32 56 50 82 41 7 -3 29 6 48 19 37 25 55
29 65 13z m-442 -17 c-13 -2 -33 -2 -45 0 -13 2 -3 4 22 4 25 0 35 -2 23 -4z
m407 -96 c0 -2 -15 -16 -32 -33 l-33 -29 29 33 c28 30 36 37 36 29z m-520 -22
c0 -9 -10 -15 -27 -16 -26 -1 -27 -1 -5 -7 13 -4 23 -11 23 -17 0 -5 -10 -13
-23 -16 -20 -5 -20 -6 9 -10 31 -5 33 -3 46 35 19 56 40 57 61 3 15 -39 19
-44 43 -39 l26 5 -27 14 c-26 14 -32 28 -18 50 11 18 102 14 109 -4 5 -13 7
-13 15 1 9 16 38 23 38 9 -1 -5 -7 -19 -15 -33 -8 -14 -14 -35 -15 -47 0 -14
-6 -23 -15 -23 -8 0 -15 9 -15 20 0 32 -22 71 -38 65 -7 -3 -21 -5 -30 -5 -12
0 -9 -4 8 -13 17 -8 25 -21 25 -37 0 -23 -4 -25 -48 -26 -26 -1 -50 2 -53 7
-7 12 -44 11 -44 -1 0 -5 -25 -10 -55 -10 l-55 0 0 55 0 55 40 0 c29 0 40 -4
40 -15z m582 3 c3 -30 3 -76 -1 -72 -5 4 -30 -28 -31 -39 0 -5 5 -5 12 -1 7 4
8 3 4 -5 -4 -6 -11 -9 -16 -6 -5 3 -23 -8 -42 -25 l-33 -30 -8 25 c-5 14 -13
25 -17 25 -5 0 -2 -12 5 -27 18 -34 7 -47 -39 -47 -19 0 -32 -4 -30 -8 3 -4 1
-8 -5 -8 -14 0 -24 44 -16 69 3 12 40 44 80 71 41 27 76 54 80 60 3 5 15 10
26 10 11 0 17 5 14 10 -3 6 -1 10 4 10 6 0 12 -6 13 -12z m-159 -55 c-7 -2
-19 -2 -25 0 -7 3 -2 5 12 5 14 0 19 -2 13 -5z m-425 -97 c5 -23 32 -20 32 4
0 11 5 20 10 20 6 0 10 -22 10 -50 0 -50 -13 -67 -23 -30 -7 25 -27 26 -27 1
0 -29 -84 -28 -105 2 -19 28 -19 33 5 57 24 24 93 22 98 -4z m125 9 c-1 -5
-12 -13 -25 -17 l-23 -6 23 -1 c12 -1 22 -6 22 -11 0 -6 -10 -15 -22 -20 -22
-8 -22 -9 5 -9 38 -1 24 -21 -14 -21 -28 0 -29 1 -29 51 l0 50 33 -3 c17 -2
31 -7 30 -13z m116 -4 c6 -9 11 -8 21 3 7 9 17 13 22 10 5 -3 2 -14 -8 -25
-16 -18 -16 -20 -1 -37 10 -10 17 -22 17 -25 0 -14 -23 -7 -36 11 -11 14 -13
14 -14 2 0 -19 -77 -25 -97 -8 -19 15 -16 65 5 77 22 13 82 8 91 -8z m262
-174 c-84 -186 -238 -315 -332 -278 -21 9 -19 10 20 10 101 2 218 106 293 262
49 100 64 105 19 6z m-328 6 c-46 -2 -120 -2 -165 0 -46 1 -9 3 82 3 91 0 128
-2 83 -3z"/>
<path d="M1055 1300 l-119 -140 -36 35 c-38 37 -50 43 -50 22 0 -14 87 -104
93 -96 259 291 270 306 241 316 -5 2 -63 -60 -129 -137z"/>
<path d="M1284 1165 c-17 -13 -16 -13 13 -3 38 14 60 1 66 -40 4 -25 4 -24 6
5 2 48 -44 69 -85 38z"/>
<path d="M1305 981 c23 -5 31 -13 36 -36 6 -28 7 -28 8 -4 0 14 -4 30 -11 37
-7 7 -23 11 -37 11 -24 -1 -24 -2 4 -8z"/>
<path d="M810 751 c-23 -6 -42 -40 -23 -42 4 0 18 -2 31 -3 18 -2 22 2 22 26
0 15 -1 28 -2 27 -2 -1 -14 -4 -28 -8z"/>
<path d="M1024 739 c-8 -14 10 -32 36 -34 15 -1 20 4 20 22 0 18 -6 23 -24 23
-14 0 -28 -5 -32 -11z"/>
<path d="M649 452 c35 -44 78 -81 121 -101 21 -10 20 -8 -5 11 -16 12 -57 47
-90 78 -57 53 -58 54 -26 12z"/>
</g>
</svg>
