<?xml version="1.0" standalone="no"?>
<!DOCTYPE svg PUBLIC "-//W3C//DTD SVG 20010904//EN"
 "http://www.w3.org/TR/2001/REC-SVG-20010904/DTD/svg10.dtd">
<svg version="1.0" xmlns="http://www.w3.org/2000/svg"
 width="512.000000pt" height="512.000000pt" viewBox="0 0 512.000000 512.000000"
 preserveAspectRatio="xMidYMid meet">

<g transform="translate(0.000000,512.000000) scale(0.100000,-0.100000)"
fill="#000000" stroke="none">
<path d="M1828 4685 c-81 -30 -139 -96 -159 -182 -7 -31 -10 -201 -10 -487 1
-263 -3 -442 -8 -445 -5 -4 -11 -40 -12 -81 -3 -113 -5 -115 -47 -67 -44 47
-85 67 -144 67 -56 0 -108 -27 -131 -68 -19 -33 -19 -35 4 -199 27 -196 23
-222 -50 -328 -26 -38 -53 -85 -59 -104 -8 -22 -12 -113 -12 -250 0 -186 -4
-238 -26 -371 -32 -191 -29 -262 13 -352 59 -125 268 -452 420 -656 47 -63 89
-127 94 -141 15 -46 29 -180 29 -276 0 -77 -29 -350 -45 -420 -8 -34 63 116
81 172 10 29 22 49 27 46 5 -3 6 4 2 18 -7 22 -7 23 10 9 17 -14 17 -13 7 7
-9 16 -9 24 0 29 6 4 8 3 4 -4 -3 -6 -2 -13 3 -16 10 -7 9 20 -2 30 -4 4 -7
12 -7 17 0 6 12 0 27 -14 20 -17 23 -18 10 -3 -19 23 -23 39 -7 29 15 -9 12 2
-8 33 -16 26 -15 26 28 -7 76 -59 75 -58 65 -41 -5 8 -22 34 -37 56 -38 57
-35 61 15 21 23 -19 56 -43 72 -53 27 -17 25 -14 -15 36 -76 92 -77 95 -15 53
33 -22 76 -48 95 -57 33 -17 32 -15 -16 31 -28 26 -59 59 -70 72 l-19 25 32
-22 c40 -28 162 -86 168 -80 3 3 -19 21 -48 41 -57 40 -135 114 -87 84 29 -19
161 -69 166 -64 2 2 -49 42 -114 89 -284 208 -412 356 -662 765 -146 239 -163
275 -163 353 0 36 10 115 23 175 19 92 24 154 29 375 l6 265 46 66 c27 38 52
88 59 117 14 61 7 205 -15 289 -22 85 -20 138 7 157 37 26 99 20 144 -13 49
-36 108 -132 108 -177 0 -18 2 -31 6 -29 5 3 6 -53 0 -180 -3 -77 -3 -78 -10
-30 l-7 50 1 -62 c1 -34 -1 -60 -5 -57 -4 2 -5 -6 -1 -18 3 -13 1 -19 -5 -15
-7 5 -9 0 -6 -13 3 -11 -1 -28 -8 -38 -11 -13 -9 -13 9 2 12 11 21 25 18 31
-2 7 -1 18 4 24 5 9 8 4 8 -13 0 -15 -4 -29 -9 -32 -5 -3 -9 -10 -9 -15 0 -6
5 -7 11 -4 6 4 5 -2 -3 -14 -7 -12 -17 -21 -22 -21 -4 0 -2 8 5 18 11 14 9 13
-9 -2 -12 -11 -20 -21 -17 -24 2 -3 -3 -11 -13 -19 -13 -10 -7 -10 23 2 38 15
39 15 20 -3 -11 -10 -30 -19 -44 -20 -34 -3 -40 -12 -8 -12 15 0 27 -5 27 -10
0 -6 -11 -8 -27 -4 l-28 6 26 -19 c18 -12 25 -25 23 -41 -3 -14 0 -21 6 -17 5
3 7 0 4 -8 -5 -15 -20 -17 -39 -5 -6 4 2 -20 19 -53 26 -53 30 -73 33 -167 3
-79 1 -103 -7 -92 -8 11 -9 -1 -6 -50 3 -45 2 -56 -3 -35 -8 26 -8 24 -5 -12
4 -48 -4 -82 -16 -63 -5 8 -9 7 -13 -5 -5 -11 -3 -14 5 -9 8 5 9 2 5 -10 -4
-10 -3 -15 3 -11 16 10 12 -7 -7 -29 -13 -15 -9 -14 11 4 l29 25 -21 -36 c-12
-20 -19 -39 -15 -43 4 -3 -7 -20 -23 -38 l-29 -31 31 21 c17 12 37 28 44 37 7
8 17 15 23 15 6 0 -5 -16 -24 -36 l-34 -37 31 6 c38 7 48 0 31 -21 -8 -11 -8
-14 0 -9 6 4 15 3 18 -3 4 -6 8 -95 9 -198 2 -215 10 -244 87 -320 65 -63 128
-84 284 -92 90 -5 111 -8 70 -10 l-60 -3 55 -7 55 -7 -55 -3 -55 -3 50 -7 c28
-4 77 -6 110 -4 72 5 62 -3 -20 -15 -58 -9 -57 -9 25 -6 47 2 96 7 110 10 19
5 22 4 10 -4 -11 -7 0 -9 40 -6 36 3 49 1 40 -5 -8 -5 -22 -7 -31 -5 -9 3 -27
1 -40 -5 -21 -9 -20 -9 10 -4 25 5 32 3 26 -6 -5 -9 -3 -9 11 -2 24 12 83 25
68 15 -9 -6 -8 -12 2 -21 12 -11 14 -10 14 5 0 15 2 16 10 3 9 -13 10 -13 11
0 1 8 5 -1 9 -20 6 -31 8 -32 9 -8 1 37 21 46 22 11 2 -26 2 -25 9 7 6 29 8
31 10 10 l2 -25 8 25 c8 25 8 25 10 -5 2 -30 2 -30 10 -5 7 21 8 22 10 5 l1
-20 9 20 c8 18 9 18 10 -5 1 -25 1 -25 15 5 l14 30 -5 -30 c-5 -29 -4 -29 16
8 21 39 34 50 23 19 -6 -15 -5 -16 12 -2 17 14 18 14 5 -10 -12 -24 -11 -24
21 5 l33 30 -19 -30 c-16 -25 -16 -28 -2 -16 14 11 17 11 17 0 0 -7 11 -2 28
13 22 21 34 25 66 20 30 -3 37 -2 31 8 -5 9 -4 11 4 6 6 -4 9 -12 6 -17 -4 -5
6 -9 22 -8 25 0 26 1 8 10 -14 6 -5 8 30 4 28 -2 68 0 90 5 37 9 36 9 -15 4
-30 -2 -61 0 -69 5 -15 10 163 7 201 -4 16 -4 19 -4 9 3 -10 7 1 10 36 9 28
-1 49 -5 47 -9 -3 -4 2 -5 10 -2 9 3 13 11 9 18 -3 6 -2 8 2 3 5 -4 19 0 32 8
13 9 23 12 23 8 0 -3 11 4 25 17 31 29 33 15 3 -19 -20 -22 -18 -22 9 3 19 17
30 35 26 45 -4 12 -3 13 5 3 7 -11 10 -11 16 3 3 9 10 13 16 10 5 -3 10 -1 10
5 0 6 5 8 10 5 6 -3 10 -14 10 -23 0 -13 -2 -14 -9 -4 -7 11 -9 10 -15 -3 -3
-9 -11 -13 -17 -9 -8 4 -9 -1 -4 -17 5 -19 4 -21 -4 -9 -9 13 -11 13 -11 -2 0
-9 -5 -20 -12 -24 -7 -5 -8 -3 -2 7 4 8 -6 3 -23 -11 -17 -14 -28 -28 -26 -33
2 -4 13 3 23 15 11 13 19 17 20 10 0 -7 5 -10 12 -6 7 5 8 3 3 -7 -25 -43 -48
-69 -56 -64 -5 4 -9 1 -9 -5 0 -6 -4 -9 -9 -6 -5 3 -14 -1 -21 -9 -7 -8 -16
-13 -20 -10 -5 3 -11 1 -14 -4 -7 -11 13 -9 32 2 7 5 12 3 12 -4 0 -8 5 -8 18
2 9 7 -3 -8 -27 -33 -24 -26 -47 -47 -50 -46 -3 0 -9 -1 -13 -2 -5 -1 -12 -3
-17 -4 -5 0 -29 -17 -52 -36 -24 -19 -48 -35 -54 -36 -5 0 -42 -17 -81 -36
-69 -34 -71 -35 -45 -44 25 -10 24 -11 -28 -28 -30 -11 -96 -22 -145 -26 -76
-6 -93 -4 -103 8 -7 9 -13 12 -13 8 0 -5 -9 3 -21 18 -11 14 -24 24 -29 21 -5
-3 -11 1 -13 7 -15 37 -5 -19 13 -70 14 -41 15 -51 5 -38 -8 11 -15 25 -15 30
0 6 -5 4 -11 -4 -8 -11 -9 -8 -5 15 5 22 4 26 -4 15 -12 -19 -13 -50 0 -50 5
0 7 -7 3 -15 -9 -25 -16 -9 -23 57 l-7 63 -2 -61 c0 -35 -14 -104 -32 -163
-17 -57 -28 -105 -25 -108 2 -3 38 -8 78 -13 l73 -7 -75 -3 -75 -3 90 -8 c125
-12 130 -20 10 -15 -75 3 -87 2 -50 -4 28 -5 73 -9 102 -9 28 -1 54 -5 58 -10
3 -6 -26 -7 -72 -4 -43 3 -75 3 -72 -1 3 -4 48 -10 100 -15 l94 -8 -95 -3
c-102 -3 -99 -5 25 -17 l80 -8 -80 -6 c-64 -5 -55 -6 40 -4 133 3 135 -1 7
-21 l-87 -13 130 4 c90 2 118 1 90 -5 -22 -5 -89 -10 -150 -12 -76 -1 -98 -4
-70 -9 22 -3 96 -5 165 -3 142 3 143 0 9 -21 l-94 -14 110 5 c71 3 106 2 100
-5 -6 -5 -21 -11 -35 -14 -25 -4 -25 -4 2 -6 l27 -1 3 -107 3 -108 38 130 c21
72 59 200 84 285 l47 155 55 50 c383 343 550 613 754 1220 56 165 61 187 61
270 1 106 -17 156 -83 225 l-42 44 23 51 c19 41 23 68 23 150 0 87 -3 107 -26
156 -24 51 -25 58 -12 84 21 40 28 135 13 181 -28 84 -115 183 -188 210 -57
22 -132 13 -186 -22 -44 -30 -44 -29 26 57 58 71 145 214 169 277 25 68 28
157 6 199 -36 69 -114 113 -203 113 l-42 0 -4 248 c-3 207 -7 253 -21 287 -25
55 -73 103 -132 131 l-50 24 -690 -1 c-555 0 -697 -3 -727 -14z m1459 -64 c47
-27 88 -80 103 -132 16 -55 12 -1217 -4 -1254 -11 -26 -14 25 -20 340 -4 204
-6 490 -6 637 1 290 0 296 -57 350 -15 15 -41 32 -56 37 -19 7 -248 11 -695
11 -626 0 -669 -2 -707 -19 -47 -22 -69 -44 -89 -92 -13 -31 -15 -228 -18
-1455 -3 -1568 -8 -1443 59 -1506 62 -60 42 -58 760 -58 617 0 661 2 698 19
76 34 115 103 115 204 0 35 4 47 13 44 8 -3 11 -25 10 -71 -3 -125 -69 -205
-185 -226 -36 -7 -283 -10 -690 -8 -617 3 -634 4 -678 24 -47 22 -105 79 -121
121 -5 15 -9 596 -9 1460 l0 1437 21 43 c23 49 79 99 124 113 17 4 333 8 710
7 l680 -2 42 -24z m-852 -79 c8 -20 -19 -47 -39 -39 -26 10 -32 38 -12 53 21
15 42 9 51 -14z m168 4 c8 -21 -2 -26 -55 -26 -45 0 -62 13 -41 33 13 13 91 7
96 -7z m132 -16 c0 -18 -6 -26 -23 -28 -13 -2 -25 3 -28 12 -10 26 4 48 28 44
17 -2 23 -10 23 -28z m-523 0 c4 0 13 -12 20 -27 l13 -28 283 -6 c155 -3 285
-9 289 -12 3 -4 -127 -7 -290 -7 l-296 0 -16 30 -16 30 -148 0 -149 0 -26 -31
c-20 -24 -26 -42 -27 -82 -3 -149 -6 -604 -9 -1427 -1 -516 -6 -898 -11 -875
-4 22 -8 558 -8 1191 l-1 1151 23 34 c38 57 64 64 222 62 77 -1 143 -2 147 -3z
m-228 -76 c19 -18 19 -20 6 -45 -18 -33 -70 -18 -70 21 0 19 19 40 36 40 7 0
20 -7 28 -16z m1180 -533 c72 -65 126 -122 126 -132 0 -21 -18 -43 -185 -228
-201 -223 -185 -198 -173 -261 14 -75 3 -153 -31 -227 -37 -79 -96 -137 -179
-176 -60 -28 -77 -32 -162 -32 -84 0 -102 4 -151 28 -84 41 -143 98 -181 175
-31 62 -33 73 -33 172 0 99 2 110 33 172 73 149 245 238 402 210 l51 -10 47
57 c26 31 103 127 172 214 69 86 128 155 132 154 4 -1 63 -53 132 -116z m419
-3 c28 -15 57 -69 57 -108 0 -19 -11 -62 -25 -94 -27 -66 -108 -192 -113 -176
-2 5 6 23 18 40 12 16 18 30 15 30 -4 0 0 11 9 25 22 34 20 42 -5 14 -15 -17
-19 -19 -15 -6 7 24 -1 21 -15 -4 -8 -15 -8 -19 0 -15 22 14 10 -11 -16 -35
-20 -17 -23 -18 -10 -3 24 29 21 41 -5 18 -23 -19 -23 -19 -7 1 9 11 24 36 34
55 l17 35 -30 -35 -31 -35 4 38 c2 20 -1 40 -6 43 -5 3 -9 54 -9 114 0 105 1
109 23 113 28 6 86 -2 110 -15z m-917 -29 c75 -14 84 -23 43 -45 -26 -13 -55
-17 -124 -15 -184 4 -347 -71 -466 -215 -96 -115 -142 -253 -138 -408 12 -400
412 -663 794 -521 172 63 311 225 355 414 21 90 16 225 -12 309 -22 64 -23 74
-9 85 12 10 13 9 7 -1 -7 -11 -4 -12 11 -4 18 10 22 4 42 -56 34 -101 39 -242
12 -356 -30 -125 -80 -215 -171 -307 -124 -125 -260 -179 -451 -179 -184 0
-311 53 -445 185 -173 170 -239 405 -177 625 93 327 418 546 729 489z m-52
-125 c19 -7 21 -21 4 -21 -7 0 -47 -5 -89 -11 -192 -28 -314 -117 -402 -291
l-42 -84 0 -127 0 -127 42 -85 c97 -195 301 -304 506 -270 85 15 195 65 253
116 51 44 110 131 135 199 24 64 33 175 21 254 -5 34 -5 67 -2 74 13 19 32
-88 32 -174 1 -204 -125 -385 -323 -469 -47 -19 -72 -22 -190 -23 l-136 0 -85
42 c-95 48 -182 130 -230 218 -31 58 -68 200 -68 259 1 220 190 458 406 510
63 15 142 20 168 10z m1088 -467 c60 -46 100 -115 106 -182 6 -79 -28 -143
-126 -237 -91 -87 -138 -113 -207 -113 -109 0 -185 77 -185 187 0 39 7 72 20
99 27 53 203 243 243 263 53 26 100 20 149 -17z m-2045 -279 c-3 -7 -5 -2 -5
12 0 14 2 19 5 13 2 -7 2 -19 0 -25z m2168 -268 c0 -74 -4 -93 -31 -150 -17
-36 -53 -92 -81 -126 -63 -75 -189 -178 -239 -194 -82 -27 -176 12 -216 91
-23 43 -23 130 -2 172 35 70 144 161 166 139 6 -6 34 -8 67 -5 43 5 71 16 121
48 36 23 76 52 89 64 27 24 36 27 25 9 -9 -14 26 10 38 27 4 6 8 6 8 1 0 -5 8
-2 18 5 14 11 15 11 5 0 -6 -7 -9 -21 -5 -30 5 -14 3 -14 -10 -3 -11 9 -18 10
-23 2 -4 -6 -1 -9 7 -8 9 2 14 -14 18 -50 3 -29 3 -56 0 -60 -4 -4 -15 -27
-26 -52 -10 -25 -22 -49 -26 -55 -5 -5 -18 -23 -29 -38 -16 -22 -24 -25 -35
-17 -18 16 -31 6 -39 -29 -3 -16 -22 -46 -41 -67 l-34 -39 30 49 c48 79 34
157 -36 203 -54 35 -146 10 -209 -57 l-30 -32 52 32 c29 18 70 36 92 40 98 18
161 -79 115 -176 -18 -38 -83 -94 -108 -94 -22 0 -75 27 -103 52 -21 20 -27 8
-10 -20 8 -12 -11 -26 -29 -20 -5 2 -10 -1 -10 -7 -2 -12 24 -51 31 -47 12 6
26 1 21 -7 -9 -15 61 -23 102 -11 50 13 103 52 203 147 106 101 150 187 155
300 4 82 0 85 -16 12 -9 -43 -9 -42 -4 11 9 75 8 92 0 115 -4 11 1 7 11 -10
13 -23 18 -51 18 -115z m-2209 -147 l3 -28 -14 25 c-19 33 -19 23 0 -30 24
-68 17 -71 -10 -5 -28 68 -28 68 -16 60 5 -3 13 0 16 6 10 15 18 4 21 -28z
m11 -160 c-3 -10 -5 -2 -5 17 0 19 2 27 5 18 2 -10 2 -26 0 -35z m2254 -48
c21 -46 24 -126 7 -176 -19 -56 -74 -133 -168 -232 -183 -193 -299 -230 -402
-127 -34 34 -38 43 -38 89 0 29 6 64 14 79 23 44 105 116 196 172 47 29 101
66 120 81 19 16 41 29 48 29 7 0 11 4 8 9 -4 5 7 15 23 22 16 7 27 17 25 21
-3 4 2 8 11 8 9 0 13 4 10 10 -7 11 39 25 54 15 19 -11 50 -14 56 -5 3 5 -2 8
-12 6 -10 -2 -31 3 -48 10 -16 7 -25 13 -18 14 6 0 20 3 30 6 13 4 14 3 5 -4
-19 -13 9 -24 29 -11 11 8 10 13 -9 28 -15 13 -18 21 -10 24 19 7 48 -22 69
-68z m-1399 53 c9 -7 40 -71 68 -143 48 -119 50 -130 34 -142 -22 -16 -51 -1
-64 33 -8 21 -16 24 -59 24 -44 0 -49 -3 -55 -25 -9 -35 -43 -51 -65 -31 -12
11 -21 12 -28 5 -6 -6 -47 -9 -99 -7 l-89 3 -3 143 -3 142 96 0 c79 0 97 -3
102 -16 12 -32 -11 -49 -71 -52 -48 -3 -56 -6 -56 -22 0 -17 7 -20 49 -20 54
0 77 -17 66 -50 -5 -17 -15 -20 -60 -20 -44 0 -53 -3 -58 -20 -5 -18 0 -20 58
-20 49 0 66 -4 73 -17 9 -14 11 -14 21 5 6 11 29 67 51 123 46 118 59 133 92
107z m278 -3 c34 -17 34 -19 19 -46 -8 -16 -19 -19 -57 -17 -36 2 -47 0 -50
-13 -2 -12 10 -21 44 -33 66 -22 84 -41 84 -88 0 -73 -78 -116 -154 -84 -42
18 -55 41 -33 63 12 13 21 13 51 3 29 -9 40 -9 52 1 23 19 12 31 -42 49 -37
13 -53 25 -68 51 -18 33 -18 37 -2 71 9 19 27 40 39 46 32 16 84 14 117 -3z
m128 -33 c13 -23 28 -42 33 -42 5 0 18 18 29 40 17 32 26 40 49 40 15 0 31 -3
34 -6 3 -4 -14 -45 -39 -92 -25 -47 -44 -97 -43 -111 4 -68 0 -81 -26 -81 -31
0 -45 26 -45 82 0 31 -11 64 -40 118 -46 87 -46 87 -22 93 33 9 47 1 70 -41z
m-1261 -74 c-3 -8 -6 -5 -6 6 -1 11 2 17 5 13 3 -3 4 -12 1 -19z m0 -50 c-3
-7 -5 -2 -5 12 0 14 2 19 5 13 2 -7 2 -19 0 -25z m-10 -50 c-3 -8 -6 -5 -6 6
-1 11 2 17 5 13 3 -3 4 -12 1 -19z m-22 -75 c-9 -15 -13 -19 -10 -8 4 11 10
29 13 40 3 11 7 14 9 8 3 -7 -3 -24 -12 -40z m623 -117 c15 -15 15 -18 -4 -37
-18 -17 -24 -18 -47 -8 -54 24 -99 -23 -83 -86 9 -36 47 -51 86 -35 27 11 32
11 45 -6 18 -24 15 -36 -16 -52 -38 -20 -106 -9 -140 24 -65 62 -55 156 21
208 31 21 114 17 138 -8z m80 12 c7 -7 12 -29 12 -50 0 -38 0 -38 40 -38 39 0
40 1 40 33 0 41 21 73 44 64 23 -9 24 -244 1 -253 -25 -10 -45 16 -45 57 0 39
0 39 -40 39 -40 0 -40 0 -40 -39 0 -41 -20 -67 -45 -57 -12 4 -15 27 -15 125
0 114 3 126 31 130 3 1 10 -4 17 -11z m340 3 c8 -5 12 -17 10 -27 -2 -15 -14
-20 -56 -22 -43 -3 -52 -6 -52 -22 0 -15 9 -19 48 -22 43 -3 47 -5 47 -28 0
-23 -4 -25 -47 -28 -39 -3 -48 -7 -48 -22 0 -16 9 -19 53 -22 45 -3 52 -6 55
-25 4 -28 -21 -35 -103 -31 l-60 3 -3 114 c-1 63 0 121 2 128 6 15 132 18 154
4z m212 -6 c35 -18 37 -26 11 -49 -16 -15 -22 -15 -40 -5 -28 18 -72 1 -89
-33 -26 -56 29 -114 85 -89 23 10 29 9 47 -8 19 -19 19 -22 4 -37 -9 -9 -36
-18 -60 -21 -63 -7 -104 16 -129 73 -53 118 58 227 171 169z m100 -34 l5 -44
38 46 c39 47 73 60 83 32 4 -8 -9 -32 -30 -57 -20 -23 -36 -46 -36 -51 0 -5
18 -31 41 -58 42 -50 46 -79 11 -79 -11 0 -36 20 -57 45 -20 25 -41 43 -46 40
-5 -4 -9 -22 -9 -41 0 -37 -22 -56 -43 -35 -12 12 -12 225 0 244 3 4 12 7 21
5 12 -2 19 -17 22 -47z m780 -272 c-68 -205 -221 -477 -360 -638 -212 -245
-473 -356 -638 -272 -23 12 -42 24 -42 27 0 2 10 -1 23 -8 13 -7 56 -12 107
-12 304 2 605 290 840 802 41 90 51 120 46 145 -4 23 -3 28 4 17 9 -13 10 -13
10 0 0 13 1 13 11 0 8 -11 9 -8 5 15 -5 22 -4 26 4 15 8 -13 10 -12 11 5 0 11
3 15 5 9 3 -6 -9 -53 -26 -105z m-109 -46 c-12 -20 -14 -14 -5 12 4 9 9 14 11
11 3 -2 0 -13 -6 -23z m-82 -53 c6 -19 8 -30 3 -25 -5 6 -15 26 -21 45 -6 19
-8 30 -3 25 5 -6 15 -26 21 -45z m19 9 c-3 -8 -7 -3 -11 10 -4 17 -3 21 5 13
5 -5 8 -16 6 -23z m19 -1 c-3 -8 -6 -5 -6 6 -1 11 2 17 5 13 3 -3 4 -12 1 -19z
m-367 -34 c0 -3 -16 -12 -35 -20 -29 -12 -127 -14 -612 -12 l-578 3 590 5
c439 4 595 8 610 17 23 14 25 15 25 7z m287 -16 c-3 -8 -6 -5 -6 6 -1 11 2 17
5 13 3 -3 4 -12 1 -19z m-1526 -6 c-7 -2 -18 1 -23 6 -8 8 -4 9 13 5 13 -4 18
-8 10 -11z m1566 -49 c-3 -10 -5 -4 -5 12 0 17 2 24 5 18 2 -7 2 -21 0 -30z
m-50 -45 c-2 -13 -4 -3 -4 22 0 25 2 35 4 23 2 -13 2 -33 0 -45z m20 15 c-3
-10 -5 -2 -5 17 0 19 2 27 5 18 2 -10 2 -26 0 -35z m-40 -20 c-3 -10 -5 -2 -5
17 0 19 2 27 5 18 2 -10 2 -26 0 -35z m-20 -55 c-3 -7 -5 -2 -5 12 0 14 2 19
5 13 2 -7 2 -19 0 -25z m-8 -33 c0 -5 -4 -3 -9 5 -5 8 -9 22 -9 30 0 16 17
-16 18 -35z m22 8 c-12 -20 -14 -14 -5 12 4 9 9 14 11 11 3 -2 0 -13 -6 -23z
m-1278 -100 c-7 -2 -19 -2 -25 0 -7 3 -2 5 12 5 14 0 19 -2 13 -5z m961 -255
c-65 -58 -96 -77 -112 -71 -10 4 -13 2 -8 -5 5 -8 1 -10 -10 -5 -11 4 -15 3
-10 -5 10 -16 -9 -23 -35 -14 -22 8 -21 9 10 20 17 6 46 21 64 34 22 15 28 17
18 5 -26 -33 4 -16 59 32 30 27 57 48 59 46 2 -2 -14 -19 -35 -37z m-401 -175
c-7 -2 -19 -2 -25 0 -7 3 -2 5 12 5 14 0 19 -2 13 -5z m-195 -240 c-10 -2 -26
-2 -35 0 -10 3 -2 5 17 5 19 0 27 -2 18 -5z m155 -40 c-7 -2 -19 -2 -25 0 -7
3 -2 5 12 5 14 0 19 -2 13 -5z"/>
<path d="M1950 4430 c0 -5 5 -10 10 -10 6 0 10 5 10 10 0 6 -4 10 -10 10 -5 0
-10 -4 -10 -10z"/>
<path d="M2825 3474 c-176 -205 -323 -374 -327 -374 -3 0 -53 45 -111 100 -99
95 -105 99 -121 81 -32 -35 -20 -56 111 -180 69 -67 130 -120 133 -119 4 2
128 140 275 308 148 168 304 343 347 390 43 47 78 90 78 96 0 5 -15 24 -32 41
l-33 32 -320 -375z"/>
<path d="M3481 3683 c-10 -26 -10 -27 4 -9 8 11 15 23 15 28 0 15 -7 8 -19
-19z"/>
<path d="M3453 3125 c-28 -15 -64 -43 -79 -63 l-28 -37 33 28 c43 36 77 53
125 61 31 6 45 3 76 -18 75 -49 75 -142 0 -210 -22 -20 -48 -36 -58 -36 -10 0
-38 13 -63 28 -24 15 -49 31 -55 35 -6 3 -11 -1 -11 -9 0 -9 11 -20 25 -25 19
-7 22 -12 13 -23 -6 -7 -7 -17 -3 -21 4 -5 1 -5 -6 -1 -7 4 -10 11 -7 16 8 13
-39 21 -50 8 -7 -8 -6 -9 3 -4 16 10 15 1 -2 -13 -12 -10 -14 -8 -12 13 2 14
-1 23 -5 20 -16 -10 -2 -48 24 -68 37 -27 130 -33 182 -11 59 25 220 192 234
241 14 49 14 84 1 84 -5 0 -10 -6 -10 -13 0 -7 -9 -32 -20 -55 -17 -35 -24
-41 -43 -37 -19 5 -25 -1 -40 -38 -10 -25 -29 -55 -43 -68 -24 -22 -23 -20 6
28 27 43 32 59 27 89 -7 43 -48 90 -94 110 -45 19 -62 18 -120 -11z"/>
<path d="M3863 2353 c-3 -10 -8 -22 -11 -27 -3 -5 1 -6 8 -1 10 6 11 1 7 -21
-12 -58 -54 -168 -60 -153 -3 9 -6 5 -6 -9 -1 -13 -5 -20 -11 -17 -5 3 -10 -1
-10 -11 0 -14 -2 -15 -17 -3 -15 13 -16 11 -10 -16 7 -29 7 -29 -9 -10 -16 20
-16 20 -11 -2 3 -15 1 -20 -9 -16 -9 3 -14 -1 -14 -12 0 -9 -4 -13 -10 -10 -5
3 -10 1 -10 -5 0 -6 -4 -8 -10 -5 -5 3 -10 -3 -10 -15 0 -12 -4 -19 -9 -16 -5
3 -11 -4 -15 -16 -4 -18 -8 -20 -18 -10 -18 18 -38 15 -38 -5 -1 -44 -67 -92
-135 -99 -36 -3 -53 0 -76 17 -16 11 -30 16 -30 10 -3 -21 -4 -26 -12 -38 -11
-18 44 -43 96 -43 77 0 150 46 273 172 60 62 118 131 129 153 11 22 23 41 27
43 4 2 4 10 1 19 -4 10 -2 14 4 10 13 -8 23 25 23 81 0 29 -4 41 -11 36 -8 -4
-9 0 -4 15 8 25 -3 29 -12 4z"/>
<path d="M3425 2085 c-16 -7 -43 -25 -60 -39 l-30 -26 45 25 c76 42 139 31
159 -26 15 -45 14 -51 -15 -94 -26 -38 -26 -39 -2 -23 12 8 31 29 40 45 23 38
9 92 -33 127 -34 29 -60 32 -104 11z"/>
<path d="M2452 2321 c-14 -39 -12 -44 16 -39 17 3 18 6 7 38 l-12 34 -11 -33z"/>
<path d="M1590 3275 c0 -5 5 -17 10 -25 5 -8 10 -10 10 -5 0 6 -5 17 -10 25
-5 8 -10 11 -10 5z"/>
<path d="M1612 3210 c0 -14 2 -19 5 -12 2 6 2 18 0 25 -3 6 -5 1 -5 -13z"/>
<path d="M1621 3164 c0 -11 3 -14 6 -6 3 7 2 16 -1 19 -3 4 -6 -2 -5 -13z"/>
<path d="M1631 3124 c0 -11 3 -14 6 -6 3 7 2 16 -1 19 -3 4 -6 -2 -5 -13z"/>
<path d="M1581 2514 c0 -11 3 -14 6 -6 3 7 2 16 -1 19 -3 4 -6 -2 -5 -13z"/>
<path d="M1593 2420 c0 -25 2 -35 4 -22 2 12 2 32 0 45 -2 12 -4 2 -4 -23z"/>
<path d="M1609 1361 c153 -225 344 -402 488 -452 83 -28 86 -22 10 17 -42 21
-65 39 -61 46 4 7 3 8 -5 4 -12 -8 -63 37 -55 48 2 3 1 4 -3 1 -3 -3 -22 7
-41 22 -20 15 -31 20 -27 12 5 -7 -13 10 -41 39 -27 28 -55 52 -61 52 -7 0
-15 5 -19 12 -5 7 -2 8 7 3 8 -5 -28 34 -79 86 -50 52 -103 111 -117 132 -14
20 -28 37 -31 37 -2 0 13 -27 35 -59z"/>
<path d="M1978 1333 c7 -3 16 -2 19 1 4 3 -2 6 -13 5 -11 0 -14 -3 -6 -6z"/>
<path d="M2068 1293 c7 -3 16 -2 19 1 4 3 -2 6 -13 5 -11 0 -14 -3 -6 -6z"/>
<path d="M3320 1280 c-6 -11 -15 -18 -19 -15 -5 2 -15 -3 -22 -13 -13 -15 -12
-16 3 -4 13 10 17 10 20 0 3 -8 12 1 22 20 9 17 14 32 12 32 -3 0 -10 -9 -16
-20z"/>
<path d="M2268 1273 c7 -3 16 -2 19 1 4 3 -2 6 -13 5 -11 0 -14 -3 -6 -6z"/>
<path d="M2928 1273 c7 -3 16 -2 19 1 4 3 -2 6 -13 5 -11 0 -14 -3 -6 -6z"/>
<path d="M2153 1263 c15 -2 39 -2 55 0 15 2 2 4 -28 4 -30 0 -43 -2 -27 -4z"/>
<path d="M2268 1253 c7 -3 16 -2 19 1 4 3 -2 6 -13 5 -11 0 -14 -3 -6 -6z"/>
<path d="M3224 1228 l-29 -33 33 29 c30 28 37 36 29 36 -2 0 -16 -15 -33 -32z"/>
<path d="M3244 1175 c-12 -8 -23 -12 -26 -10 -3 3 -13 -5 -24 -17 l-19 -23 24
20 c24 20 24 20 17 0 -6 -16 -1 -14 23 9 41 39 43 48 5 21z"/>
<path d="M2888 963 c7 -3 16 -2 19 1 4 3 -2 6 -13 5 -11 0 -14 -3 -6 -6z"/>
<path d="M2838 953 c7 -3 16 -2 19 1 4 3 -2 6 -13 5 -11 0 -14 -3 -6 -6z"/>
<path d="M2928 953 c7 -3 16 -2 19 1 4 3 -2 6 -13 5 -11 0 -14 -3 -6 -6z"/>
<path d="M2768 943 c6 -2 18 -2 25 0 6 3 1 5 -13 5 -14 0 -19 -2 -12 -5z"/>
<path d="M2855 940 c-27 -7 -28 -8 -5 -8 14 0 34 3 45 8 25 11 2 11 -40 0z"/>
<path d="M2714 928 c-3 -4 21 -7 53 -7 60 1 56 5 -10 11 -21 2 -40 0 -43 -4z"/>
<path d="M2518 573 c7 -3 16 -2 19 1 4 3 -2 6 -13 5 -11 0 -14 -3 -6 -6z"/>
<path d="M2588 483 c6 -2 18 -2 25 0 6 3 1 5 -13 5 -14 0 -19 -2 -12 -5z"/>
</g>
</svg>
